<svg width="432" height="220" viewBox="0 0 432 220" fill="none" xmlns="http://www.w3.org/2000/svg">
<g clip-path="url(#clip0)">
<path d="M424.1 0H25.2V8H424.1V0Z" fill="#5F6263"/>
<path d="M329.6 53.1H324.6V3.5H329.6V53.1ZM325.6 52.1H328.6V4.5H325.6V52.1Z" fill="#5F6263"/>
<path d="M374.6 52.5H370.1V51.5H373.6V4.5H370.6V48H369.6V3.5H374.6V52.5Z" fill="#5F6263"/>
<path d="M428.4 52.5H393.6V47.5H428.4V52.5ZM394.6 51.5H427.4V48.5H394.6V51.5Z" fill="#5F6263"/>
<path d="M374.6 52.5H348.6V47.5H370.6V48.5H349.6V51.5H373.6V48H374.6V52.5Z" fill="#5F6263"/>
<path d="M424.1 211.6H25.2V219.3H424.1V211.6Z" fill="#5F6263"/>
<path d="M431.776 219.28L431.776 -0.0202637L424.076 -0.0202637L424.076 219.28H431.776Z" fill="#5F6263"/>
<path d="M137.9 0.200073H123.9V12.2001H137.9V0.200073Z" fill="#5F6263"/>
<path d="M39.2 0.200073H25.2V12.2001H39.2V0.200073Z" fill="#5F6263"/>
<path d="M39.2 207.3H25.2V219.3H39.2V207.3Z" fill="#5F6263"/>
<path d="M137.9 207.3H123.9V219.3H137.9V207.3Z" fill="#5F6263"/>
<path d="M362 207.3H348V219.3H362V207.3Z" fill="#5F6263"/>
<path d="M362 0.200073H348V12.2001H362V0.200073Z" fill="#5F6263"/>
<path d="M37 12.2001H36V89.3001H37V12.2001Z" fill="#5F6263"/>
<path d="M37 130.2H36V207.3H37V130.2Z" fill="#5F6263"/>
<path d="M29.1 130.2H28.1V207.3H29.1V130.2Z" fill="#5F6263"/>
<path opacity="0.1" d="M428 4H37V213.3H428V4Z" fill="#5F6263"/>
<path d="M26.2 130.2H25.2V207.3H26.2V130.2Z" fill="#5F6263"/>
<path d="M29 12.2001H28V89.3001H29V12.2001Z" fill="#5F6263"/>
<path d="M26.2 12.2001H25.2V89.3001H26.2V12.2001Z" fill="#5F6263"/>
<path d="M37 88.3H25.2V89.3H37V88.3Z" fill="#5F6263"/>
<path d="M37 129.7H25.2V130.7H37V129.7Z" fill="#5F6263"/>
<path d="M0.799997 129.7H0.199997C0.199997 113.9 13 101 28.6 101V101.5C13.3 101.5 0.799997 114.2 0.799997 129.7Z" fill="#5F6263"/>
<path d="M28.5 101.5C21.5 101.5 15.8 95.8 15.8 88.8H16.3C16.3 95.5 21.8 101 28.5 101V101.5Z" fill="#5F6263"/>
<path d="M29.1 130.7H0V127H29.1V130.7ZM1 129.7H28.1V128H1V129.7Z" fill="#5F6263"/>
<path d="M346.6 70.6C336.8 70.6 328.8 62.7 328.8 53H329.3C329.3 62.4 337 70.1 346.6 70.1V70.6Z" fill="#5F6263"/>
<path d="M349.1 70.8001H345.4V51.8H349.1V70.8001ZM346.3 69.8001H348V52.8H346.3V69.8001Z" fill="#5F6263"/>
<path d="M391.6 70.8C382 70.8 373.8 62.4 373.8 52.4H374.3C374.3 61.9 382.4 70.3 391.6 70.3V70.8Z" fill="#5F6263"/>
<path d="M394.6 70.8001H390.9V51.8H394.6V70.8001ZM391.9 69.8001H393.6V52.8H391.9V69.8001Z" fill="#5F6263"/>
<path d="M29.1 92.0001H17.1C16.2 92.0001 15.5 91.3001 15.5 90.4001V88.2001H29V92.0001H29.1ZM16.6 89.3001V90.5001C16.6 90.8001 16.9 91.1001 17.2 91.1001H28.2V89.4001H16.6V89.3001Z" fill="#5F6263"/>
<path d="M343 17.4H332.6C331.8 17.4 331.2 16.8 331.2 16V13.3C331.2 12.5 331.8 11.9 332.6 11.9H343C343.8 11.9 344.4 12.5 344.4 13.3V16C344.4 16.8 343.8 17.4 343 17.4ZM332.6 12.4C332.1 12.4 331.7 12.8 331.7 13.3V16C331.7 16.5 332.1 16.9 332.6 16.9H343C343.5 16.9 343.9 16.5 343.9 16V13.3C343.9 12.8 343.5 12.4 343 12.4H332.6Z" fill="#F47321"/>
<path d="M337.8 30.2C335.1 30.2 332.8 28 332.8 25.2V16.9H342.7V25.2C342.8 27.9 340.6 30.2 337.8 30.2ZM333.3 17.4V25.2C333.3 27.7 335.3 29.7 337.8 29.7C340.3 29.7 342.3 27.7 342.3 25.2V17.4H333.3Z" fill="#F47321"/>
<path d="M339.2 17.4H336.5V16.3C336.5 15.6 337.1 14.9 337.9 14.9C338.6 14.9 339.3 15.5 339.3 16.3V17.4H339.2ZM337 16.9H338.7V16.3C338.7 15.8 338.3 15.4 337.8 15.4C337.3 15.4 336.9 15.8 336.9 16.3V16.9H337Z" fill="#F47321"/>
<path d="M231.7 8H231.2V9.5H231.7V8Z" fill="#5F6263"/>
<path d="M231.7 207.1H231.2V204.1H231.7V207.1ZM231.7 201.1H231.2V198.1H231.7V201.1ZM231.7 195.1H231.2V192.1H231.7V195.1ZM231.7 189.1H231.2V186.1H231.7V189.1ZM231.7 183.1H231.2V180.1H231.7V183.1ZM231.7 177.2H231.2V174.2H231.7V177.2ZM231.7 171.2H231.2V168.2H231.7V171.2ZM231.7 165.2H231.2V162.2H231.7V165.2ZM231.7 159.2H231.2V156.2H231.7V159.2ZM231.7 153.2H231.2V150.2H231.7V153.2ZM231.7 147.2H231.2V144.2H231.7V147.2ZM231.7 141.2H231.2V138.2H231.7V141.2ZM231.7 135.2H231.2V132.2H231.7V135.2ZM231.7 129.3H231.2V126.3H231.7V129.3ZM231.7 123.3H231.2V120.3H231.7V123.3ZM231.7 117.3H231.2V114.3H231.7V117.3ZM231.7 111.3H231.2V108.3H231.7V111.3ZM231.7 105.3H231.2V102.3H231.7V105.3ZM231.7 99.3H231.2V96.3H231.7V99.3ZM231.7 93.3H231.2V90.3H231.7V93.3ZM231.7 87.3H231.2V84.3H231.7V87.3ZM231.7 81.4H231.2V78.4H231.7V81.4ZM231.7 75.4H231.2V72.4H231.7V75.4ZM231.7 69.4H231.2V66.4H231.7V69.4ZM231.7 63.4H231.2V60.4H231.7V63.4ZM231.7 57.4H231.2V54.4H231.7V57.4ZM231.7 51.4H231.2V48.4H231.7V51.4ZM231.7 45.4H231.2V42.4H231.7V45.4ZM231.7 39.4H231.2V36.4H231.7V39.4ZM231.7 33.5H231.2V30.5H231.7V33.5ZM231.7 27.5H231.2V24.5H231.7V27.5ZM231.7 21.5H231.2V18.5H231.7V21.5ZM231.7 15.5H231.2V12.5H231.7V15.5Z" fill="#5F6263"/>
<path d="M231.7 210.1H231.2V211.6H231.7V210.1Z" fill="#5F6263"/>
<path d="M424.3 77.5H422.8V78H424.3V77.5Z" fill="#5F6263"/>
<path d="M419.8 78H416.8V77.5H419.8V78ZM413.9 78H410.9V77.5H413.9V78ZM407.9 78H404.9V77.5H407.9V78ZM401.9 78H398.9V77.5H401.9V78ZM396 78H393V77.5H396V78ZM390 78H387V77.5H390V78ZM384 78H381V77.5H384V78ZM378.1 78H375.1V77.5H378.1V78ZM372.1 78H369.1V77.5H372.1V78ZM366.1 78H363.1V77.5H366.1V78ZM360.2 78H357.2V77.5H360.2V78ZM354.2 78H351.2V77.5H354.2V78ZM348.2 78H345.2V77.5H348.2V78ZM342.3 78H339.3V77.5H342.3V78ZM336.3 78H333.3V77.5H336.3V78ZM330.3 78H327.3V77.5H330.3V78ZM324.4 78H321.4V77.5H324.4V78ZM318.4 78H315.4V77.5H318.4V78ZM312.4 78H309.4V77.5H312.4V78ZM306.5 78H303.5V77.5H306.5V78ZM300.5 78H297.5V77.5H300.5V78ZM294.5 78H291.5V77.5H294.5V78ZM288.6 78H285.6V77.5H288.6V78ZM282.6 78H279.6V77.5H282.6V78ZM276.6 78H273.6V77.5H276.6V78ZM270.7 78H267.7V77.5H270.7V78ZM264.7 78H261.7V77.5H264.7V78ZM258.7 78H255.7V77.5H258.7V78ZM252.8 78H249.8V77.5H252.8V78ZM246.8 78H243.8V77.5H246.8V78ZM240.8 78H237.8V77.5H240.8V78ZM234.9 78H231.9V77.5H234.9V78ZM228.9 78H225.9V77.5H228.9V78ZM222.9 78H219.9V77.5H222.9V78ZM217 78H214V77.5H217V78ZM211 78H208V77.5H211V78ZM205 78H202V77.5H205V78ZM199.1 78H196.1V77.5H199.1V78ZM193.1 78H190.1V77.5H193.1V78ZM187.1 78H184.1V77.5H187.1V78ZM181.2 78H178.2V77.5H181.2V78ZM175.2 78H172.2V77.5H175.2V78ZM169.2 78H166.2V77.5H169.2V78ZM163.3 78H160.3V77.5H163.3V78ZM157.3 78H154.3V77.5H157.3V78ZM151.3 78H148.3V77.5H151.3V78ZM145.4 78H142.4V77.5H145.4V78ZM139.4 78H136.4V77.5H139.4V78ZM133.4 78H130.4V77.5H133.4V78ZM127.5 78H124.5V77.5H127.5V78ZM121.5 78H118.5V77.5H121.5V78ZM115.5 78H112.5V77.5H115.5V78ZM109.6 78H106.6V77.5H109.6V78ZM103.6 78H100.6V77.5H103.6V78ZM97.7 78H94.7V77.5H97.7V78ZM91.7 78H88.7V77.5H91.7V78ZM85.7 78H82.7V77.5H85.7V78ZM79.8 78H76.8V77.5H79.8V78ZM73.8 78H70.8V77.5H73.8V78ZM67.8 78H64.8V77.5H67.8V78ZM61.9 78H58.9V77.5H61.9V78ZM55.9 78H52.9V77.5H55.9V78ZM49.9 78H46.9V77.5H49.9V78ZM44 78H41V77.5H44V78Z" fill="#5F6263"/>
<path d="M38 77.5H36.5V78H38V77.5Z" fill="#5F6263"/>
<path d="M408.6 11.0001V21.3001H389.6V11.0001H408.6ZM408.2 20.9001V11.3001H390V20.9001H408.2Z" fill="#F47321"/>
<path d="M409.7 8.1001V22.3001H388.6V8.1001H409.7ZM409.3 21.9001V8.4001H388.9V21.9001H409.3Z" fill="#F47321"/>
<path d="M403.4 9.60007C403.4 10.1001 403 10.5001 402.5 10.5001C402 10.5001 401.6 10.1001 401.6 9.60007C401.6 9.10007 402 8.70007 402.5 8.70007C403 8.70007 403.4 9.20007 403.4 9.60007ZM402 9.60007C402 9.90007 402.3 10.2001 402.6 10.2001C402.9 10.2001 403.2 9.90007 403.2 9.60007C403.2 9.30007 402.9 9.00007 402.6 9.00007C402.3 9.00007 402 9.30007 402 9.60007Z" fill="#F47321"/>
<path d="M404.4 9.50012H403.3V9.80012H404.4V9.50012Z" fill="#F47321"/>
<path d="M396.6 9.60007C396.6 10.1001 396.2 10.5001 395.7 10.5001C395.2 10.5001 394.8 10.1001 394.8 9.60007C394.8 9.10007 395.2 8.70007 395.7 8.70007C396.2 8.70007 396.6 9.20007 396.6 9.60007ZM395.2 9.60007C395.2 9.90007 395.5 10.2001 395.8 10.2001C396.1 10.2001 396.4 9.90007 396.4 9.60007C396.4 9.30007 396.1 9.00007 395.8 9.00007C395.5 9.00007 395.2 9.30007 395.2 9.60007Z" fill="#F47321"/>
<path d="M395 9.50012H393.9V9.80012H395V9.50012Z" fill="#F47321"/>
<path d="M399.1 10.5001C399.597 10.5001 400 10.0971 400 9.60007C400 9.10302 399.597 8.70007 399.1 8.70007C398.603 8.70007 398.2 9.10302 398.2 9.60007C398.2 10.0971 398.603 10.5001 399.1 10.5001Z" fill="#F47321"/>
<path d="M400.2 9.60012C400.2 10.2001 399.7 10.7001 399.1 10.7001C398.5 10.7001 398 10.2001 398 9.60012C398 9.00012 398.5 8.50012 399.1 8.50012C399.7 8.50012 400.2 9.10012 400.2 9.60012ZM398.4 9.60012C398.4 10.0001 398.7 10.3001 399.1 10.3001C399.5 10.3001 399.8 10.0001 399.8 9.60012C399.8 9.20012 399.5 8.90012 399.1 8.90012C398.7 8.90012 398.4 9.30012 398.4 9.60012Z" fill="#F47321"/>
<path d="M399.1 9.5C399.3 9.5 399.6 9.7 399.6 10V12.8C399.6 13 399.4 13.3 399.1 13.3C398.9 13.3 398.6 13.1 398.6 12.8V9.9C398.7 9.7 398.9 9.5 399.1 9.5Z" fill="white"/>
<path d="M399.7 9.90005V12.7C399.7 13 399.4 13.3 399.1 13.3C398.8 13.3 398.5 13 398.5 12.7V9.90005C398.5 9.60005 398.8 9.30005 399.1 9.30005C399.5 9.30005 399.7 9.60005 399.7 9.90005ZM398.8 12.8C398.8 13 398.9 13.1 399.1 13.1C399.3 13.1 399.4 13 399.4 12.8V9.90005C399.4 9.70005 399.3 9.60005 399.1 9.60005C398.9 9.60005 398.8 9.70005 398.8 9.90005V12.8Z" fill="#F47321"/>
<path d="M59.023 174.748V165.523L56.973 166.027L56.4354 163.91L59.8127 162.902H61.577V174.748H59.023Z" fill="black"/>
<path d="M66.1116 174.748V165.523L64.0616 166.027L63.524 163.91L66.9013 162.902H68.6656V174.748H66.1116Z" fill="black"/>
<path d="M75.9054 174.949C74.4828 174.949 73.3514 174.529 72.5113 173.689C71.5815 172.759 71.1166 171.264 71.1166 169.203C71.1166 167.298 71.5535 165.753 72.4272 164.565C73.301 163.378 74.5836 162.784 76.275 162.784C77.6416 162.784 78.8682 163.215 79.9548 164.078L78.5938 166.077C78.1681 165.753 77.7761 165.517 77.4176 165.372C77.0704 165.215 76.6615 165.137 76.191 165.137C75.4965 165.137 74.9476 165.389 74.5444 165.893C74.1523 166.386 73.9115 167.041 73.8219 167.859C74.5836 167.354 75.3957 167.102 76.2582 167.102C77.468 167.102 78.4594 167.433 79.2323 168.094C80.0052 168.755 80.3917 169.684 80.3917 170.883C80.3917 172.07 79.966 173.045 79.1147 173.807C78.2633 174.568 77.1936 174.949 75.9054 174.949ZM74.3091 172.244C74.6788 172.569 75.1773 172.731 75.8046 172.731C76.4319 172.731 76.9247 172.569 77.2832 172.244C77.6416 171.919 77.8209 171.494 77.8209 170.967C77.8209 170.463 77.636 170.054 77.2664 169.74C76.8967 169.416 76.3983 169.253 75.771 169.253C75.1437 169.253 74.6508 169.41 74.2923 169.724C73.9339 170.037 73.7546 170.457 73.7546 170.984C73.7546 171.488 73.9395 171.908 74.3091 172.244Z" fill="black"/>
<path d="M81.9898 177.47L81.7713 176.411C82.8691 176.288 83.418 175.795 83.418 174.932V174.748H82.3762V172.059H85.0982V174.328C85.0982 175.403 84.835 176.187 84.3085 176.68C83.7932 177.184 83.0203 177.447 81.9898 177.47Z" fill="black"/>
<path d="M91.3678 174.949C89.4523 174.949 87.9233 174.272 86.7807 172.916L88.5618 171.219C89.4019 172.16 90.3485 172.631 91.4014 172.631C91.8943 172.631 92.292 172.502 92.5944 172.244C92.9081 171.975 93.0649 171.617 93.0649 171.169C93.0649 170.687 92.8633 170.317 92.46 170.06C92.0567 169.802 91.4911 169.673 90.7629 169.673H89.6876L89.2843 168.027L92.0904 165.204H87.4696V162.986H95.4173V164.935L92.4432 167.775C94.5491 168.133 95.6021 169.242 95.6021 171.101C95.6021 172.233 95.2156 173.157 94.4427 173.874C93.681 174.591 92.656 174.949 91.3678 174.949Z" fill="black"/>
<path d="M97.4016 174.748V172.698L101.317 169.488C102.089 168.85 102.622 168.34 102.913 167.959C103.204 167.567 103.35 167.136 103.35 166.666C103.35 166.184 103.204 165.809 102.913 165.54C102.622 165.271 102.241 165.137 101.77 165.137C101.333 165.137 100.936 165.26 100.577 165.506C100.23 165.741 99.8267 166.145 99.3675 166.716L97.5528 165.254C98.1689 164.414 98.8018 163.798 99.4515 163.406C100.112 163.014 100.941 162.818 101.938 162.818C103.159 162.818 104.139 163.154 104.879 163.826C105.618 164.487 105.988 165.372 105.988 166.481C105.988 167.119 105.864 167.696 105.618 168.211C105.372 168.715 105.052 169.164 104.66 169.556C104.268 169.936 103.68 170.429 102.896 171.034L100.981 172.513H106.105V174.748H97.4016Z" fill="black"/>
<path d="M113.227 174.748V165.741H115.815L118.251 169.522L120.721 165.741H123.309V174.748H120.721V169.337L118.217 173.034L115.747 169.388V174.748H113.227Z" fill="black"/>
<path d="M125.48 168V166.805L127.762 164.934C128.213 164.562 128.523 164.264 128.693 164.042C128.863 163.814 128.948 163.562 128.948 163.288C128.948 163.007 128.863 162.789 128.693 162.632C128.523 162.475 128.301 162.397 128.027 162.397C127.772 162.397 127.54 162.469 127.331 162.612C127.129 162.749 126.894 162.984 126.626 163.318L125.568 162.465C125.927 161.976 126.296 161.616 126.675 161.388C127.06 161.159 127.544 161.045 128.125 161.045C128.837 161.045 129.408 161.241 129.839 161.633C130.27 162.018 130.486 162.534 130.486 163.18C130.486 163.553 130.414 163.889 130.27 164.189C130.127 164.483 129.94 164.744 129.712 164.973C129.483 165.195 129.14 165.482 128.683 165.835L127.567 166.697H130.554V168H125.48Z" fill="black"/>
<path d="M236.1 197.8H226.8C225.7 197.8 224.8 196.9 224.8 195.8V170.7C224.8 169.6 225.7 168.7 226.8 168.7H236.1C237.2 168.7 238.1 169.6 238.1 170.7V195.8C238.1 196.9 237.2 197.8 236.1 197.8Z" fill="white"/>
<path d="M236.1 198H233.1V197.5H236.1V198ZM230.1 198H227.1V197.5H230.1V198ZM236.5 198L236.4 197.5C237.2 197.4 237.9 196.6 237.9 195.8V195.6H238.4V195.8C238.3 196.9 237.6 197.8 236.5 198ZM224.6 196.3C224.6 196.1 224.5 196 224.5 195.8V193.2H225V195.8C225 195.9 225 196.1 225 196.2L224.6 196.3ZM238.3 192.6H237.8V189.6H238.3V192.6ZM225.1 190.2H224.6V187.2H225.1V190.2ZM238.3 186.6H237.8V183.6H238.3V186.6ZM225.1 184.2H224.6V181.2H225.1V184.2ZM238.3 180.6H237.8V177.6H238.3V180.6ZM225.1 178.2H224.6V175.2H225.1V178.2ZM238.3 174.6H237.8V171.6H238.3V174.6ZM225.1 172.2H224.6V170.7C224.6 170.1 224.8 169.6 225.2 169.2L225.6 169.5C225.3 169.8 225.1 170.2 225.1 170.7V172.2ZM237 169.2C236.7 169 236.4 169 236.1 169H234.2V168.5H236.1C236.5 168.5 236.9 168.6 237.2 168.8L237 169.2ZM231.1 169H228.1V168.5H231.1V169Z" fill="#5F6263"/>
<path d="M234.072 191.109H229.088L229.416 192.165L228.904 192.317L228.432 190.949V190.485H234.072V191.109Z" fill="black"/>
<path d="M234.072 188.578L229.048 186.05V189.13H228.472V185.33H228.944L234.072 187.874V188.578Z" fill="black"/>
<path d="M234.072 185.089H233.232V184.353H234.072V185.089Z" fill="black"/>
<path d="M234.168 181.32C234.168 182.062 233.872 182.728 233.28 183.32L232.824 182.904C233.336 182.376 233.592 181.846 233.592 181.312C233.592 180.912 233.474 180.587 233.24 180.336C233.005 180.086 232.704 179.96 232.336 179.96C231.989 179.96 231.706 180.091 231.488 180.352C231.269 180.608 231.16 180.942 231.16 181.352C231.16 181.736 231.266 182.128 231.48 182.528L231.2 182.952L228.472 182.792V179.568H229.056V182.24L230.848 182.36C230.682 181.982 230.6 181.614 230.6 181.256C230.6 180.696 230.757 180.235 231.072 179.872C231.381 179.504 231.8 179.32 232.328 179.32C232.872 179.32 233.314 179.507 233.656 179.88C233.997 180.254 234.168 180.734 234.168 181.32Z" fill="black"/>
<path d="M234.168 176.422C234.168 177.163 233.872 177.83 233.28 178.422L232.824 178.006C233.336 177.478 233.592 176.947 233.592 176.414C233.592 176.014 233.474 175.689 233.24 175.438C233.005 175.187 232.704 175.062 232.336 175.062C231.989 175.062 231.706 175.193 231.488 175.454C231.269 175.71 231.16 176.043 231.16 176.454C231.16 176.838 231.266 177.23 231.48 177.63L231.2 178.054L228.472 177.894V174.67H229.056V177.342L230.848 177.462C230.682 177.083 230.6 176.715 230.6 176.358C230.6 175.798 230.757 175.337 231.072 174.974C231.381 174.606 231.8 174.422 232.328 174.422C232.872 174.422 233.314 174.609 233.656 174.982C233.997 175.355 234.168 175.835 234.168 176.422Z" fill="black"/>
<path d="M45.1 82.4001V73.1001C45.1 72.0001 46 71.1001 47.1 71.1001H72.2C73.3 71.1001 74.2 72.0001 74.2 73.1001V82.4001C74.2 83.5001 73.3 84.4001 72.2 84.4001H47.1C46 84.4001 45.1 83.5001 45.1 82.4001Z" fill="white"/>
<path d="M71.2 84.6H68.2V84.1H71.2V84.6ZM65.2 84.6H62.2V84.1H65.2V84.6ZM59.2 84.6H56.2V84.1H59.2V84.6ZM53.2 84.6H50.2V84.1H53.2V84.6ZM47.2 84.6H47C45.9 84.6 45 83.8 44.8 82.7L45.3 82.6C45.4 83.4 46.2 84.1 47 84.1H47.2V84.6ZM74.1 83.5L73.7 83.2C73.9 82.9 73.9 82.6 73.9 82.3V80.4H74.4V82.3C74.4 82.8 74.3 83.2 74.1 83.5ZM45.3 82.4H44.8V79.4H45.3V82.4ZM74.4 77.4H73.9V74.4H74.4V77.4ZM45.3 76.4H44.8V73.4H45.3V76.4ZM73.3 71.8C73 71.5 72.6 71.3 72.1 71.3H70.6V70.8H72.1C72.7 70.8 73.2 71 73.6 71.4L73.3 71.8ZM46.7 71.4L46.6 70.9C46.8 70.9 46.9 70.8 47.1 70.8H49.7V71.3H47.1C46.9 71.4 46.8 71.4 46.7 71.4ZM67.6 71.4H64.6V70.9H67.6V71.4ZM61.6 71.4H58.6V70.9H61.6V71.4ZM55.6 71.4H52.6V70.9H55.6V71.4Z" fill="#5F6263"/>
<path d="M53.2368 80.4568C52.5648 80.4568 52.0341 80.2355 51.6448 79.7928C51.2555 79.3501 51.0608 78.6541 51.0608 77.7048C51.0608 76.8301 51.2688 76.1048 51.6848 75.5288C52.1061 74.9528 52.6741 74.6648 53.3888 74.6648C53.9701 74.6648 54.5221 74.8781 55.0448 75.3048L54.6768 75.7928C54.2395 75.4248 53.7995 75.2408 53.3568 75.2408C52.8608 75.2408 52.4635 75.4675 52.1648 75.9208C51.8661 76.3741 51.7168 76.9635 51.7168 77.6888V77.7128C52.1061 77.1421 52.6368 76.8568 53.3088 76.8568C53.8475 76.8568 54.3035 77.0168 54.6768 77.3368C55.0555 77.6568 55.2448 78.0755 55.2448 78.5928C55.2448 79.1315 55.0528 79.5768 54.6688 79.9288C54.2848 80.2808 53.8075 80.4568 53.2368 80.4568ZM53.2448 79.8968C53.6501 79.8968 53.9755 79.7741 54.2208 79.5288C54.4715 79.2835 54.5968 78.9741 54.5968 78.6008C54.5968 78.2541 54.4688 77.9688 54.2128 77.7448C53.9568 77.5155 53.6288 77.4008 53.2288 77.4008C52.8235 77.4008 52.4875 77.5261 52.2208 77.7768C51.9595 78.0221 51.8288 78.3101 51.8288 78.6408C51.8288 78.9981 51.9621 79.2968 52.2288 79.5368C52.4955 79.7768 52.8341 79.8968 53.2448 79.8968Z" fill="black"/>
<path d="M56.3685 80.3608V79.5208H57.1045V80.3608H56.3685Z" fill="black"/>
<path d="M60.3774 80.4568C59.7054 80.4568 59.1747 80.2355 58.7854 79.7928C58.3961 79.3501 58.2014 78.6541 58.2014 77.7048C58.2014 76.8301 58.4094 76.1048 58.8254 75.5288C59.2467 74.9528 59.8147 74.6648 60.5294 74.6648C61.1107 74.6648 61.6627 74.8781 62.1854 75.3048L61.8174 75.7928C61.3801 75.4248 60.9401 75.2408 60.4974 75.2408C60.0014 75.2408 59.6041 75.4675 59.3054 75.9208C59.0067 76.3741 58.8574 76.9635 58.8574 77.6888V77.7128C59.2467 77.1421 59.7774 76.8568 60.4494 76.8568C60.9881 76.8568 61.4441 77.0168 61.8174 77.3368C62.1961 77.6568 62.3854 78.0755 62.3854 78.5928C62.3854 79.1315 62.1934 79.5768 61.8094 79.9288C61.4254 80.2808 60.9481 80.4568 60.3774 80.4568ZM60.3854 79.8968C60.7907 79.8968 61.1161 79.7741 61.3614 79.5288C61.6121 79.2835 61.7374 78.9741 61.7374 78.6008C61.7374 78.2541 61.6094 77.9688 61.3534 77.7448C61.0974 77.5155 60.7694 77.4008 60.3694 77.4008C59.9641 77.4008 59.6281 77.5261 59.3614 77.7768C59.1001 78.0221 58.9694 78.3101 58.9694 78.6408C58.9694 78.9981 59.1027 79.2968 59.3694 79.5368C59.6361 79.7768 59.9747 79.8968 60.3854 79.8968Z" fill="black"/>
<path d="M65.175 80.4568C64.5776 80.4568 64.0016 80.2275 63.447 79.7688L63.815 79.2808C64.2683 79.6808 64.727 79.8808 65.191 79.8808C65.687 79.8808 66.087 79.6595 66.391 79.2168C66.7003 78.7688 66.855 78.1955 66.855 77.4968V77.4248C66.4816 78.0221 65.9536 78.3208 65.271 78.3208C64.695 78.3208 64.2256 78.1581 63.863 77.8328C63.5003 77.5021 63.319 77.0808 63.319 76.5688C63.319 76.0301 63.5083 75.5795 63.887 75.2168C64.2656 74.8488 64.7483 74.6648 65.335 74.6648C65.9963 74.6648 66.5216 74.8861 66.911 75.3288C67.3056 75.7715 67.503 76.4701 67.503 77.4248C67.503 78.3155 67.287 79.0435 66.855 79.6088C66.423 80.1741 65.863 80.4568 65.175 80.4568ZM65.343 77.7768C65.7536 77.7768 66.087 77.6488 66.343 77.3928C66.6043 77.1368 66.735 76.8381 66.735 76.4968C66.735 76.1341 66.6016 75.8328 66.335 75.5928C66.0683 75.3475 65.727 75.2248 65.311 75.2248C64.9056 75.2248 64.5803 75.3555 64.335 75.6168C64.0896 75.8728 63.967 76.1848 63.967 76.5528C63.967 76.9101 64.095 77.2035 64.351 77.4328C64.607 77.6621 64.9376 77.7768 65.343 77.7768Z" fill="black"/>
</g>
<defs>
<clipPath id="clip0">
<rect width="431.8" height="219.3" fill="white"/>
</clipPath>
</defs>
</svg>
