<svg width="40" height="45" viewBox="0 0 40 45" fill="none" xmlns="http://www.w3.org/2000/svg">
<rect x="13.8462" width="26.1538" height="3.07692" fill="#F47321"/>
<rect x="13.8462" y="7.69238" width="26.1538" height="3.07692" fill="#F47321"/>
<rect y="15.3845" width="40" height="3.07692" fill="#F47321"/>
<rect y="23.0769" width="40" height="3.07692" fill="#F47321"/>
<rect y="30.7693" width="21.5385" height="3.07692" fill="#F47321"/>
<path d="M0 10.7692V7.1413H0.827759C1.17057 6.33509 1.41722 5.48221 1.56773 4.58265C1.71823 3.68309 1.79348 2.50349 1.79348 1.04383V0H8.17726V7.1413H9.23077L8.97993 10.7692H7.36204V8.91071H1.86873L1.74331 10.7692H0ZM6.24582 1.76941H3.64967V2.67321C3.64967 4.35352 3.38629 5.84288 2.85953 7.1413H6.24582V1.76941Z" fill="#F47321"/>
<path d="M0 44.7308V38.9616H2.2686C3.29927 38.9616 4.10868 39.2253 4.69684 39.7528C5.29059 40.2803 5.58747 40.9726 5.58747 41.8297C5.58747 42.6814 5.28779 43.3792 4.68844 43.9231C4.08908 44.4616 3.27126 44.7308 2.23499 44.7308H0ZM1.63003 43.3132H2.2938C2.78673 43.3132 3.17884 43.1841 3.47011 42.9259C3.76699 42.6676 3.91543 42.305 3.91543 41.8379C3.91543 41.3819 3.76699 41.022 3.47011 40.7583C3.17884 40.4945 2.78673 40.3627 2.2938 40.3627H1.63003V43.3132Z" fill="#F47321"/>
<path d="M11.6425 43.9726C11.0376 44.555 10.2842 44.8462 9.38232 44.8462C8.48048 44.8462 7.72708 44.5577 7.12212 43.9808C6.52277 43.3984 6.22309 42.6869 6.22309 41.8462C6.22309 41.011 6.52557 40.3022 7.13053 39.7198C7.74109 39.1374 8.49729 38.8462 9.39912 38.8462C10.301 38.8462 11.0516 39.1374 11.6509 39.7198C12.2559 40.2967 12.5584 41.0055 12.5584 41.8462C12.5584 42.6814 12.2531 43.3901 11.6425 43.9726ZM9.39912 43.4039C9.84164 43.4039 10.2001 43.2528 10.4746 42.9506C10.7547 42.6484 10.8947 42.2803 10.8947 41.8462C10.8947 41.4176 10.7519 41.0522 10.4662 40.75C10.1805 40.4423 9.81923 40.2885 9.38232 40.2885C8.9454 40.2885 8.58691 40.4396 8.30684 40.7418C8.03236 41.044 7.89513 41.4121 7.89513 41.8462C7.89513 42.2748 8.03516 42.6429 8.31524 42.9506C8.60091 43.2528 8.96221 43.4039 9.39912 43.4039Z" fill="#F47321"/>
<path d="M16.239 44.8462C15.3876 44.8462 14.6678 44.5632 14.0796 43.9973C13.4971 43.4259 13.2058 42.7088 13.2058 41.8462C13.2058 41 13.4999 40.2885 14.088 39.7116C14.6818 39.1347 15.4212 38.8462 16.3062 38.8462C17.3537 38.8462 18.1771 39.2528 18.7765 40.066L17.5833 40.9726C17.2192 40.5275 16.7879 40.305 16.2894 40.305C15.8805 40.305 15.5444 40.4533 15.2811 40.75C15.0179 41.0467 14.8862 41.4121 14.8862 41.8462C14.8862 42.2858 15.0179 42.6539 15.2811 42.9506C15.5444 43.2418 15.8805 43.3874 16.2894 43.3874C16.5751 43.3874 16.8187 43.3297 17.0204 43.2143C17.222 43.0934 17.4209 42.9176 17.6169 42.6869L18.8437 43.544C18.5356 43.9561 18.1771 44.2775 17.7682 44.5083C17.3593 44.7336 16.8495 44.8462 16.239 44.8462Z" fill="#F47321"/>
<path d="M19.0344 44.7308L21.051 41.7967L19.1185 38.9616H20.9921L22.034 40.5852L23.0843 38.9616H24.916L22.9835 41.7803L25 44.7308H23.1263L22.0004 42.9918L20.8661 44.7308H19.0344Z" fill="#F47321"/>
</svg>
