<svg width="50" height="50" viewBox="0 0 50 50" fill="none" xmlns="http://www.w3.org/2000/svg">
<circle cx="25" cy="25" r="24" fill="white" fill-opacity="0.5" stroke="white" stroke-width="2"/>
<path d="M25.015 20C29.766 20 33.078 23.012 34.519 24.636C33.118 26.473 29.806 30 25.015 30C20.595 30 17.085 26.464 15.537 24.593C17.03 22.946 20.354 20 25.015 20ZM25.015 18C17.446 18 13 24.551 13 24.551C13 24.551 17.835 32 25.015 32C32.748 32 37 24.551 37 24.551C37 24.551 32.709 18 25.015 18ZM25 21C22.79 21 21 22.791 21 25C21 27.209 22.79 29 25 29C27.209 29 29 27.209 29 25C29 22.791 27.209 21 25 21ZM24.996 24.999C24.432 25.563 23.517 25.563 22.952 24.999C22.387 24.435 22.387 23.519 22.952 22.955C23.516 22.391 24.431 22.391 24.996 22.955C25.561 23.519 25.561 24.434 24.996 24.999Z" fill="white"/>
</svg>
