<svg width="24" height="25" viewBox="0 0 24 25" fill="none" xmlns="http://www.w3.org/2000/svg">
<g clip-path="url(#clip0)">
<path d="M12 2.79972C15.204 2.79972 15.584 2.81172 16.85 2.86972C20.102 3.01772 21.621 4.56072 21.769 7.78872C21.827 9.05372 21.838 9.43372 21.838 12.6377C21.838 15.8427 21.826 16.2217 21.769 17.4867C21.62 20.7117 20.105 22.2577 16.85 22.4057C15.584 22.4637 15.206 22.4757 12 22.4757C8.796 22.4757 8.416 22.4637 7.151 22.4057C3.891 22.2567 2.38 20.7067 2.232 17.4857C2.174 16.2207 2.162 15.8417 2.162 12.6367C2.162 9.43272 2.175 9.05372 2.232 7.78772C2.381 4.56072 3.896 3.01672 7.151 2.86872C8.417 2.81172 8.796 2.79972 12 2.79972ZM12 0.636719C8.741 0.636719 8.333 0.650719 7.053 0.708719C2.695 0.908719 0.273 3.32672 0.073 7.68872C0.014 8.96972 0 9.37772 0 12.6367C0 15.8957 0.014 16.3047 0.072 17.5847C0.272 21.9427 2.69 24.3647 7.052 24.5647C8.333 24.6227 8.741 24.6367 12 24.6367C15.259 24.6367 15.668 24.6227 16.948 24.5647C21.302 24.3647 23.73 21.9467 23.927 17.5847C23.986 16.3047 24 15.8957 24 12.6367C24 9.37772 23.986 8.96972 23.928 7.68972C23.732 3.33572 21.311 0.909719 16.949 0.709719C15.668 0.650719 15.259 0.636719 12 0.636719V0.636719ZM12 6.47472C8.597 6.47472 5.838 9.23372 5.838 12.6367C5.838 16.0397 8.597 18.7997 12 18.7997C15.403 18.7997 18.162 16.0407 18.162 12.6367C18.162 9.23372 15.403 6.47472 12 6.47472ZM12 16.6367C9.791 16.6367 8 14.8467 8 12.6367C8 10.4277 9.791 8.63672 12 8.63672C14.209 8.63672 16 10.4277 16 12.6367C16 14.8467 14.209 16.6367 12 16.6367ZM18.406 4.79172C17.61 4.79172 16.965 5.43672 16.965 6.23172C16.965 7.02672 17.61 7.67172 18.406 7.67172C19.201 7.67172 19.845 7.02672 19.845 6.23172C19.845 5.43672 19.201 4.79172 18.406 4.79172Z" fill="white"/>
</g>
<defs>
<clipPath id="clip0">
<rect width="24" height="24" fill="white" transform="translate(0 0.636719)"/>
</clipPath>
</defs>
</svg>
