<svg width="134" height="56" viewBox="0 0 134 56" fill="none" xmlns="http://www.w3.org/2000/svg">
<path d="M26.445 4.48532L22.4058 -0.00538635L0.00427004 20.1438L4.04347 24.6345L26.445 4.48532Z" fill="#EE7327"/>
<path d="M53.2 12.27V6.23H38.9H32.86V12.27V14.64H25.75V20.68H32.86V23.6V29.08H38.9H53.2V23.6H38.9V20.68H47.16V14.64H38.9V12.27H53.2Z" fill="#4C4D4F"/>
<path d="M133.78 12.27V6.23H119.49H113.45V12.27V14.64H110.34V20.68H113.45V23.6V29.08H119.49H133.78V23.6H119.49V20.68H127.75V14.64H119.49V12.27H133.78Z" fill="#4C4D4F"/>
<path d="M83.68 6.23H77.64V29.08H83.68V6.23Z" fill="#4C4D4F"/>
<path d="M24.01 32.01V40.42H12.94V32.01H6.90001V54.86H12.94V46.45H24.01V54.86H30.05V32.01H24.01Z" fill="#4C4D4F"/>
<path d="M109.79 6.23H101.23H95.2H86.27V12.27H95.2V29.08H101.23V12.27H109.79V6.23Z" fill="#4C4D4F"/>
<path d="M62.83 23.6V6.23H56.79V23.6V29.08H62.83H74.72V23.6H62.83Z" fill="#4C4D4F"/>
<path d="M133.78 38.27V32.23H119.49H113.45V36.93V38.27V40.64V46.67V49.6V50.12V55.08H119.49H133.78V49.6H119.49V46.67H127.75V40.64H119.49V38.27H133.78Z" fill="#4C4D4F"/>
<path d="M45.37 31.69C38.2 31.69 32.37 37.05 32.37 43.69C32.37 50.33 38.18 55.69 45.37 55.69C52.56 55.69 58.37 50.33 58.37 43.69C58.37 37.05 52.54 31.69 45.37 31.69ZM45.37 50.19C44.0785 50.19 42.816 49.807 41.7421 49.0895C40.6683 48.372 39.8313 47.3521 39.3371 46.1589C38.8428 44.9657 38.7135 43.6528 38.9655 42.3861C39.2174 41.1194 39.8394 39.9558 40.7526 39.0426C41.6658 38.1294 42.8294 37.5074 44.0961 37.2555C45.3628 37.0035 46.6757 37.1328 47.8689 37.6271C49.0621 38.1213 50.082 38.9583 50.7995 40.0321C51.517 41.106 51.9 42.3685 51.9 43.66C51.9 45.3919 51.212 47.0528 49.9874 48.2774C48.7628 49.502 47.1019 50.19 45.37 50.19V50.19Z" fill="#4C4D4F"/>
<path d="M77.64 32.23V44.49C77.5784 45.9617 76.9504 47.3527 75.8872 48.3723C74.8241 49.3919 73.408 49.9611 71.935 49.9611C70.462 49.9611 69.0459 49.3919 67.9828 48.3723C66.9196 47.3527 66.2916 45.9617 66.23 44.49V32.23H60.09V45.07C60.0887 46.4602 60.3614 47.8371 60.8925 49.1219C61.4236 50.4067 62.2027 51.5742 63.1853 52.5577C64.1679 53.5412 65.3346 54.3214 66.6189 54.8537C67.9032 55.386 69.2798 55.66 70.67 55.66H72.93C75.7387 55.66 78.4323 54.5443 80.4183 52.5583C82.4043 50.5723 83.52 47.8787 83.52 45.07V32.23H77.64Z" fill="#4C4D4F"/>
<path d="M106.76 39.67L109.57 35.45C107.072 33.5187 104.122 32.2588 101 31.79C95.86 31.04 91 31.79 87.86 35.54C84.72 39.29 87.86 43.7 90.33 44.79C92.48 45.72 97.63 46.11 99.05 46.21H99.72C100.66 46.16 103.72 46.11 104.31 48.09C105 50.26 99.87 50.4 96 50C93.4258 49.5864 91.0089 48.4919 89 46.83L86 51.83C86 51.83 88.84 55.88 98.23 55.62C107.62 55.36 109.67 50.83 109.89 48.08C110.11 45.33 108.95 42.02 103.75 41.08C98.55 40.14 94.89 41.31 92.84 39.38C91 37.66 96.17 37.08 98.53 37.13C100.89 37.18 105.09 38.37 106.76 39.67Z" fill="#4C4D4F"/>
</svg>
