<svg width="44" height="80" viewBox="0 0 44 80" fill="none" xmlns="http://www.w3.org/2000/svg">
<ellipse cx="22" cy="73.6367" rx="14" ry="6" fill="url(#paint0_radial)" fill-opacity="0.45"/>
<path d="M22 71.6367L21.564 71.8815L22 72.658L22.436 71.8815L22 71.6367ZM22 71.6367C22.436 71.8815 22.4361 71.8813 22.4363 71.881L22.437 71.8797L22.4399 71.8745L22.4515 71.8539L22.4967 71.7729C22.5367 71.7015 22.5958 71.5954 22.6729 71.4567C22.8271 71.1793 23.0531 70.7711 23.3406 70.2477C23.9156 69.2008 24.7369 67.6927 25.7223 65.8469C27.693 62.1557 30.3211 57.1121 32.9497 51.7046C35.5776 46.2985 38.2095 40.5214 40.1856 35.3648C42.1527 30.2318 43.5 25.6399 43.5 22.6367C43.5 10.7626 33.8741 1.13672 22 1.13672C10.1259 1.13672 0.5 10.7626 0.5 22.6367C0.5 25.6399 1.84731 30.2318 3.81436 35.3648C5.79046 40.5214 8.42243 46.2985 11.0503 51.7046C13.6789 57.1121 16.307 62.1557 18.2777 65.8469C19.2631 67.6927 20.0844 69.2008 20.6594 70.2477C20.9469 70.7711 21.1729 71.1793 21.3271 71.4567C21.4042 71.5954 21.4633 71.7015 21.5033 71.7729L21.5485 71.8539L21.5601 71.8745L21.563 71.8797L21.5637 71.881C21.5639 71.8813 21.564 71.8815 22 71.6367Z" fill="$grey" stroke="#F47321"/>
<circle cx="22" cy="22.6367" r="14" fill="#575859"/>
<rect x="14.1958" y="27.2568" width="18.2233" height="3.64467" transform="rotate(-42.8116 14.1958 27.2568)" fill="#F47321"/>
<defs>
<radialGradient id="paint0_radial" cx="0" cy="0" r="1" gradientUnits="userSpaceOnUse" gradientTransform="translate(22 73.6367) rotate(90) scale(6 14)">
<stop/>
<stop offset="1" stop-opacity="0"/>
</radialGradient>
</defs>
</svg>
