<svg width="40" height="45" viewBox="0 0 40 45" fill="none" xmlns="http://www.w3.org/2000/svg">
<rect x="13.8462" width="26.1538" height="3.07692" fill="#F47321" fill-opacity="0.8"/>
<rect x="13.8462" y="7.69238" width="26.1538" height="3.07692" fill="#F47321" fill-opacity="0.8"/>
<rect y="15.3845" width="40" height="3.07692" fill="#F47321" fill-opacity="0.8"/>
<rect y="23.0769" width="40" height="3.07692" fill="#F47321" fill-opacity="0.8"/>
<rect y="30.7693" width="21.5385" height="3.07692" fill="#F47321" fill-opacity="0.8"/>
<path d="M0 10.7692V7.1413H0.827759C1.17057 6.33509 1.41722 5.48221 1.56773 4.58265C1.71823 3.68309 1.79348 2.50349 1.79348 1.04383V0H8.17726V7.1413H9.23077L8.97993 10.7692H7.36204V8.91071H1.86873L1.74331 10.7692H0ZM6.24582 1.76941H3.64967V2.67321C3.64967 4.35352 3.38629 5.84288 2.85953 7.1413H6.24582V1.76941Z" fill="#F47321" fill-opacity="0.8"/>
<path d="M0 45V39H2.57143C3.33714 39 3.94286 39.1886 4.38857 39.5657C4.84 39.9371 5.06571 40.4571 5.06571 41.1257C5.06571 41.8114 4.82857 42.3429 4.35429 42.72C3.88 43.0971 3.25714 43.2857 2.48571 43.2857H1.66286V45H0ZM1.66286 41.9829H2.45143C2.74857 41.9829 2.98 41.9114 3.14571 41.7686C3.31714 41.6257 3.40286 41.4314 3.40286 41.1857C3.40286 40.9286 3.31714 40.7343 3.14571 40.6029C2.98 40.4657 2.74571 40.3971 2.44286 40.3971H1.66286V41.9829Z" fill="#F47321" fill-opacity="0.8"/>
<path d="M5.7673 45V39H8.08158C9.13301 39 9.95873 39.2743 10.5587 39.8229C11.1644 40.3714 11.4673 41.0914 11.4673 41.9829C11.4673 42.8686 11.1616 43.5943 10.5502 44.16C9.93873 44.72 9.10444 45 8.0473 45H5.7673ZM7.43016 43.5257H8.1073C8.61016 43.5257 9.01016 43.3914 9.3073 43.1229C9.61016 42.8543 9.76159 42.4771 9.76159 41.9914C9.76159 41.5171 9.61016 41.1429 9.3073 40.8686C9.01016 40.5943 8.61016 40.4571 8.1073 40.4571H7.43016V43.5257Z" fill="#F47321" fill-opacity="0.8"/>
<path d="M12.3214 45V39H17.1214V40.4571H13.9843V41.4771H16.8214V42.8571H13.9843V45H12.3214Z" fill="#F47321" fill-opacity="0.8"/>
</svg>
