<svg width="16" height="20" viewBox="0 0 16 20" fill="none" xmlns="http://www.w3.org/2000/svg">
<path d="M3.14668 1.10167L5.51668 0L8.88418 6.575L6.61418 7.6925C6.16584 8.74167 8.41334 12.9333 9.36168 13.0025C9.43668 12.9542 11.5875 11.8958 11.5875 11.8958L15.0125 18.5058C15.0125 18.5058 12.7092 19.6342 12.6342 19.6692C6.08251 22.6617 -3.28499 4.45417 3.14668 1.10167ZM4.75418 2.16333L3.90168 2.58333C-0.50999 4.885 7.38251 20.2375 11.9417 18.155L12.7508 17.76L10.8583 14.1075L10.0033 14.5242C7.36751 15.8133 3.11834 7.675 5.79084 6.2425L6.63001 5.82833L4.75418 2.16333Z" fill="white"/>
</svg>
