<svg width="16" height="21" viewBox="0 0 16 21" fill="none" xmlns="http://www.w3.org/2000/svg">
<path d="M3.14668 1.13597L5.51668 0.0343018L8.88418 6.6093L6.61418 7.7268C6.16584 8.77597 8.41334 12.9676 9.36168 13.0368C9.43668 12.9885 11.5875 11.9301 11.5875 11.9301L15.0125 18.5401C15.0125 18.5401 12.7092 19.6685 12.6342 19.7035C6.08251 22.696 -3.28499 4.48847 3.14668 1.13597ZM4.75418 2.19763L3.90168 2.61764C-0.50999 4.9193 7.38251 20.2718 11.9417 18.1893L12.7508 17.7943L10.8583 14.1418L10.0033 14.5585C7.36751 15.8476 3.11834 7.7093 5.79084 6.2768L6.63001 5.86264L4.75418 2.19763Z" fill="black"/>
</svg>
