<svg width="112" height="120" viewBox="0 0 112 120" fill="none" xmlns="http://www.w3.org/2000/svg">
<path d="M12.4706 6.17656H4C2.34315 6.17656 1 7.51971 1 9.17656V116C1 117.657 2.34315 119 4 119H77.7647M23.9412 6.17656H37.1765M49 6.17656H61.8824M73.3529 6.17656H86.5882M98.0588 6.17656L108 6.17652C109.657 6.17652 111 7.51967 111 9.17652V85.5883" stroke="#F47321" stroke-width="2"/>
<rect x="11.7059" y="1" width="13" height="11.2353" rx="5" stroke="#F47321" stroke-width="2"/>
<rect x="36.4117" y="1" width="13" height="11.2353" rx="5" stroke="#F47321" stroke-width="2"/>
<rect x="61.1176" y="1" width="13" height="11.2353" rx="5" stroke="#F47321" stroke-width="2"/>
<rect x="85.8235" y="1" width="13" height="11.2353" rx="5" stroke="#F47321" stroke-width="2"/>
<line x1="1" y1="23" x2="93.6471" y2="23" stroke="#F47321" stroke-width="2"/>
<line x1="92" y1="23" x2="106" y2="23" stroke="#F47321" stroke-width="2" stroke-dasharray="2 2"/>
<line x1="15.1177" y1="90.1177" x2="10.7059" y2="90.1177" stroke="#214FF4" stroke-width="2"/>
<line x1="38.0588" y1="90.1177" x2="20.4118" y2="90.1177" stroke="#214FF4" stroke-width="2"/>
<line x1="15.1177" y1="97.1765" x2="10.7059" y2="97.1765" stroke="#214FF4" stroke-width="2"/>
<line x1="38.0588" y1="97.1765" x2="20.4118" y2="97.1765" stroke="#214FF4" stroke-width="2"/>
<line x1="38.0588" y1="104.235" x2="10.7059" y2="104.235" stroke="#214FF4" stroke-width="2"/>
<path d="M91 56V33.5293H12.4706V82.0587H45" stroke="#F47321" stroke-width="2"/>
<line x1="28" y1="33" x2="28" y2="82" stroke="#F47321" stroke-width="2"/>
<line x1="43" y1="33" x2="43" y2="82" stroke="#F47321" stroke-width="2"/>
<line x1="59" y1="33" x2="59" y2="59" stroke="#F47321" stroke-width="2"/>
<line x1="75.2353" y1="32.647" x2="75.2353" y2="53.8234" stroke="#F47321" stroke-width="2"/>
<line x1="91.8824" y1="48.647" x2="13.3529" y2="48.647" stroke="#F47321" stroke-width="2"/>
<line x1="53.9412" y1="63.647" x2="13.3529" y2="63.647" stroke="#F47321" stroke-width="2"/>
<circle cx="78" cy="86" r="33" stroke="#F47321" stroke-width="2"/>
<circle cx="78" cy="86" r="25" stroke="#F47321" stroke-width="2"/>
<path d="M75.6874 93.951C74.5879 93.8438 73.567 93.6114 72.6246 93.2539C71.6996 92.8964 70.766 92.3602 69.8235 91.6452L71.368 89.0981C72.3628 89.7773 73.3576 90.2867 74.3523 90.6264C75.3646 90.9481 76.4728 91.109 77.677 91.109C78.8288 91.109 79.7799 90.9481 80.5304 90.6264C81.2808 90.3046 81.656 89.8309 81.656 89.2053C81.656 88.7942 81.5338 88.4814 81.2895 88.2669C81.0452 88.0524 80.6176 87.9094 80.0068 87.8379L75.1377 87.2749C73.6543 87.0961 72.485 86.694 71.6298 86.0684C70.7921 85.4249 70.3733 84.415 70.3733 83.0386C70.3733 82.3594 70.5129 81.7606 70.7921 81.2422C71.0714 80.7239 71.4553 80.2859 71.944 79.9284C72.4326 79.5531 72.9998 79.2581 73.6455 79.0437C74.2913 78.8113 74.9806 78.6504 75.7136 78.561L75.8183 76.7646H78.8026L78.8811 78.561C79.8759 78.6683 80.8183 78.8828 81.7084 79.2045C82.6159 79.5263 83.5146 80.0178 84.4047 80.6792L82.834 83.0654C81.9789 82.5113 81.0975 82.1091 80.19 81.8589C79.2825 81.6087 78.2529 81.4835 77.101 81.4835C76.3855 81.4835 75.8009 81.5282 75.3471 81.6176C74.8934 81.6891 74.5356 81.7963 74.2738 81.9393C74.012 82.0823 73.8288 82.2432 73.7241 82.4219C73.6368 82.6007 73.5932 82.7973 73.5932 83.0118C73.5932 83.4408 73.7677 83.7268 74.1167 83.8698C74.4658 83.9949 74.9195 84.0932 75.478 84.1647L79.8235 84.6741C81.3768 84.8708 82.5984 85.3266 83.4885 86.0415C84.3785 86.7386 84.8235 87.7754 84.8235 89.1517C84.8235 89.8846 84.6752 90.5281 84.3785 91.0822C84.0993 91.6363 83.6979 92.1189 83.1743 92.53C82.6508 92.9232 82.0225 93.245 81.2895 93.4952C80.574 93.7276 79.7799 93.8795 78.9073 93.951L78.8026 96.1764H75.8183L75.6874 93.951Z" fill="#F47321"/>
<line x1="90.1176" y1="85.853" x2="95.4118" y2="85.853" stroke="#F47321" stroke-width="3"/>
<line x1="60.1176" y1="85.853" x2="65.4118" y2="85.853" stroke="#F47321" stroke-width="3"/>
</svg>
