<svg width="122" height="120" viewBox="0 0 122 120" fill="none" xmlns="http://www.w3.org/2000/svg">
<path d="M88.3298 70.982H94.0967C94.3516 70.982 94.596 70.8808 94.7763 70.7005C94.9565 70.5203 95.0578 70.2758 95.0578 70.0209V64.2541C95.0578 63.9992 94.9565 63.7547 94.7763 63.5745C94.596 63.3942 94.3516 63.293 94.0967 63.293H88.3298C88.0749 63.293 87.8305 63.3942 87.6502 63.5745C87.47 63.7547 87.3687 63.9992 87.3687 64.2541V70.0209C87.3687 70.2758 87.47 70.5203 87.6502 70.7005C87.8305 70.8808 88.0749 70.982 88.3298 70.982ZM89.291 65.2152H93.1355V69.0598H89.291V65.2152Z" fill="#F47321"/>
<path d="M76.7962 70.982H82.563C82.8179 70.982 83.0624 70.8808 83.2426 70.7005C83.4229 70.5203 83.5242 70.2758 83.5242 70.0209V64.2541C83.5242 63.9992 83.4229 63.7547 83.2426 63.5745C83.0624 63.3942 82.8179 63.293 82.563 63.293H76.7962C76.5413 63.293 76.2968 63.3942 76.1166 63.5745C75.9363 63.7547 75.8351 63.9992 75.8351 64.2541V70.0209C75.8351 70.2758 75.9363 70.5203 76.1166 70.7005C76.2968 70.8808 76.5413 70.982 76.7962 70.982ZM77.7574 65.2152H81.6019V69.0598H77.7574V65.2152Z" fill="#F47321"/>
<path d="M88.3298 81.5546H94.0967C94.3516 81.5546 94.596 81.4533 94.7763 81.273C94.9565 81.0928 95.0578 80.8483 95.0578 80.5934V74.8266C95.0578 74.5717 94.9565 74.3272 94.7763 74.147C94.596 73.9667 94.3516 73.8655 94.0967 73.8655H88.3298C88.0749 73.8655 87.8305 73.9667 87.6502 74.147C87.47 74.3272 87.3687 74.5717 87.3687 74.8266V80.5934C87.3687 80.8483 87.47 81.0928 87.6502 81.273C87.8305 81.4533 88.0749 81.5546 88.3298 81.5546ZM89.291 75.7877H93.1355V79.6323H89.291V75.7877Z" fill="#F47321"/>
<path d="M83.5242 74.8266C83.5242 74.5717 83.4229 74.3272 83.2426 74.147C83.0624 73.9667 82.8179 73.8655 82.563 73.8655H76.7962C76.5413 73.8655 76.2968 73.9667 76.1166 74.147C75.9363 74.3272 75.8351 74.5717 75.8351 74.8266V80.5934C75.8351 80.8483 75.9363 81.0928 76.1166 81.273C76.2968 81.4533 76.5413 81.5546 76.7962 81.5546H82.563C82.8179 81.5546 83.0624 81.4533 83.2426 81.273C83.4229 81.0928 83.5242 80.8483 83.5242 80.5934V74.8266ZM81.6019 79.6323H77.7574V75.7877H81.6019V79.6323Z" fill="#F47321"/>
<path d="M88.3298 92.1271H94.0967C94.3516 92.1271 94.596 92.0258 94.7763 91.8456C94.9565 91.6653 95.0578 91.4208 95.0578 91.1659V85.3991C95.0578 85.1442 94.9565 84.8997 94.7763 84.7195C94.596 84.5392 94.3516 84.438 94.0967 84.438H88.3298C88.0749 84.438 87.8305 84.5392 87.6502 84.7195C87.47 84.8997 87.3687 85.1442 87.3687 85.3991V91.1659C87.3687 91.4208 87.47 91.6653 87.6502 91.8456C87.8305 92.0258 88.0749 92.1271 88.3298 92.1271ZM89.291 86.3603H93.1355V90.2048H89.291V86.3603Z" fill="#F47321"/>
<path d="M103.708 95.9716H113.319C113.574 95.9716 113.819 95.8703 113.999 95.6901C114.179 95.5098 114.28 95.2654 114.28 95.0105V85.3991C114.28 85.1442 114.179 84.8997 113.999 84.7195C113.819 84.5392 113.574 84.438 113.319 84.438H103.708C103.453 84.438 103.209 84.5392 103.028 84.7195C102.848 84.8997 102.747 85.1442 102.747 85.3991V95.0105C102.747 95.2654 102.848 95.5098 103.028 95.6901C103.209 95.8703 103.453 95.9716 103.708 95.9716ZM104.669 86.3603H112.358V94.0493H104.669V86.3603Z" fill="#F47321"/>
<path d="M103.708 110.389H113.319C113.574 110.389 113.819 110.287 113.999 110.107C114.179 109.927 114.28 109.682 114.28 109.427V99.8161C114.28 99.5612 114.179 99.3167 113.999 99.1365C113.819 98.9562 113.574 98.855 113.319 98.855H103.708C103.453 98.855 103.209 98.9562 103.028 99.1365C102.848 99.3167 102.747 99.5612 102.747 99.8161V109.427C102.747 109.682 102.848 109.927 103.028 110.107C103.209 110.287 103.453 110.389 103.708 110.389ZM104.669 100.777H112.358V108.466H104.669V100.777Z" fill="#F47321"/>
<path d="M120.047 118.078H119.086V80.5934C119.086 80.3385 118.985 80.094 118.805 79.9138C118.624 79.7335 118.38 79.6323 118.125 79.6323H113.319V75.7877C113.319 75.5328 113.218 75.2883 113.038 75.1081C112.858 74.9279 112.613 74.8266 112.358 74.8266H104.669C104.414 74.8266 104.17 74.9279 103.989 75.1081C103.809 75.2883 103.708 75.5328 103.708 75.7877V79.6323H99.8634V59.4484C99.8634 59.1935 99.7622 58.9491 99.5819 58.7688C99.4017 58.5886 99.1572 58.4873 98.9023 58.4873H71.9905C71.7356 58.4873 71.4912 58.5886 71.3109 58.7688C71.1307 58.9491 71.0294 59.1935 71.0294 59.4484V79.6323C70.5417 79.3184 70.0344 79.0359 69.5108 78.7865C69.3843 78.7279 69.2465 78.6976 69.1071 78.6976C68.9677 78.6976 68.83 78.7279 68.7035 78.7865C66.5825 79.7841 64.781 81.3523 63.5006 83.3156C62.2202 85.2789 61.5115 87.5597 61.4536 89.9029C61.3957 92.246 61.9911 94.5591 63.173 96.5831C64.355 98.6072 66.0769 100.262 68.146 101.364V107.793L64.0708 103.036C63.9051 102.842 63.6692 102.722 63.4151 102.702C63.1609 102.683 62.9093 102.764 62.7156 102.93C62.5219 103.096 62.4019 103.332 62.3821 103.586C62.3622 103.84 62.4442 104.092 62.6099 104.285L68.146 110.744V118.078H60.4569C60.202 118.078 59.9575 118.179 59.7773 118.359C59.5971 118.539 59.4958 118.784 59.4958 119.039C59.4958 119.294 59.5971 119.538 59.7773 119.718C59.9575 119.899 60.202 120 60.4569 120H120.047C120.302 120 120.547 119.899 120.727 119.718C120.907 119.538 121.008 119.294 121.008 119.039C121.008 118.784 120.907 118.539 120.727 118.359C120.547 118.179 120.302 118.078 120.047 118.078ZM105.63 76.7489H111.397V79.6323H105.63V76.7489ZM117.164 81.5545V118.078H99.8634V81.5545H117.164ZM63.3403 90.2047C63.3441 88.2465 63.8834 86.3266 64.8999 84.6528C65.9163 82.979 67.3713 81.6151 69.1071 80.7087C70.76 81.5671 72.1599 82.8424 73.1681 84.4084C74.1763 85.9744 74.7577 87.7766 74.8549 89.6365C74.952 91.4965 74.5614 93.3495 73.7218 95.012C72.8822 96.6744 71.6228 98.0886 70.0683 99.1145V92.4442L72.7594 88.8592C72.8352 88.7582 72.8903 88.6433 72.9216 88.521C72.9529 88.3987 72.9599 88.2715 72.942 88.1465C72.9242 88.0216 72.8819 87.9014 72.8176 87.7928C72.7533 87.6842 72.6682 87.5893 72.5672 87.5136C72.4662 87.4378 72.3513 87.3827 72.2291 87.3514C72.1068 87.3201 71.9796 87.3131 71.8546 87.331C71.7297 87.3488 71.6095 87.3911 71.5008 87.4554C71.3922 87.5197 71.2974 87.6048 71.2216 87.7058L69.1071 90.5219L66.9926 87.7058C66.8397 87.5019 66.612 87.367 66.3597 87.331C66.1073 87.2949 65.851 87.3606 65.647 87.5136C65.4431 87.6665 65.3083 87.8942 65.2723 88.1465C65.2362 88.3989 65.3019 88.6552 65.4548 88.8592L68.146 92.4442V99.1145C66.6746 98.1385 65.4664 96.815 64.6282 95.261C63.79 93.707 63.3477 91.9704 63.3403 90.2047ZM70.0683 110.744L75.6044 104.285C75.7701 104.092 75.852 103.84 75.8322 103.586C75.8124 103.332 75.6924 103.096 75.4987 102.93C75.3049 102.764 75.0533 102.683 74.7992 102.702C74.545 102.722 74.3092 102.842 74.1435 103.036L70.0683 107.793V101.364C71.8071 100.44 73.3072 99.1251 74.4499 97.522C75.5926 95.9189 76.3465 94.0718 76.652 92.127H76.7962H82.563C82.8179 92.127 83.0624 92.0257 83.2426 91.8455C83.4229 91.6653 83.5241 91.4208 83.5241 91.1659V85.3991C83.5241 85.1442 83.4229 84.8997 83.2426 84.7194C83.0624 84.5392 82.8179 84.4379 82.563 84.4379H76.7962C76.5413 84.4379 76.2968 84.5392 76.1166 84.7194C75.9363 84.8997 75.8351 85.1442 75.8351 85.3991C75.173 83.7987 74.1919 82.35 72.9517 81.1412V60.4096H97.9412V118.078H92.1744V97.8938C92.1744 97.6389 92.0731 97.3944 91.8928 97.2142C91.7126 97.0339 91.4681 96.9327 91.2132 96.9327H79.6796C79.4247 96.9327 79.1802 97.0339 79 97.2142C78.8197 97.3944 78.7185 97.6389 78.7185 97.8938V118.078H70.0683V110.744ZM77.7573 90.2047V86.3602H81.6019V90.2047H77.7573ZM90.2521 118.078H80.6407V98.8549H90.2521V118.078Z" fill="#F47321"/>
<path d="M8.55815 14.4027C9.13544 14.6906 9.76395 14.8581 10.4064 14.8952C11.0488 14.9323 11.692 14.8382 12.2978 14.6185C12.9037 14.3988 13.4597 14.058 13.9331 13.6164C14.4064 13.1747 14.7873 12.6412 15.0532 12.0474C15.319 11.4537 15.4644 10.8119 15.4808 10.1601C15.4971 9.50836 15.384 8.85991 15.1482 8.25328C14.9124 7.64666 14.5587 7.09423 14.1081 6.62879C13.6575 6.16336 13.1192 5.79441 12.5252 5.54386C12.6173 4.85276 12.5624 4.14969 12.3643 3.48185C12.1661 2.814 11.8293 2.19683 11.3763 1.67175C10.9234 1.14668 10.3648 0.72585 9.73816 0.437512C9.11149 0.149175 8.4312 0 7.74294 0C7.05469 0 6.3744 0.149175 5.74773 0.437512C5.12106 0.72585 4.56251 1.14668 4.10957 1.67175C3.65663 2.19683 3.31978 2.814 3.12163 3.48185C2.92348 4.14969 2.86861 4.85276 2.96071 5.54386C1.93321 5.97486 1.08553 6.75436 0.562773 7.7489C0.0400206 8.74344 -0.125288 9.89118 0.0951477 10.9956C0.315583 12.1001 0.908054 13.0925 1.77113 13.8031C2.63421 14.5136 3.71421 14.8981 4.82625 14.8907C5.55433 14.8915 6.27307 14.7247 6.92814 14.4027V19.8455H0.815619C0.599467 19.8455 0.392168 19.9325 0.239325 20.0874C0.086482 20.2423 0.000615788 20.4523 0.000615788 20.6713C0.000615788 20.8903 0.086482 21.1004 0.239325 21.2552C0.392168 21.4101 0.599467 21.4971 0.815619 21.4971H15.2962L14.7815 23.9745H0.815619C0.599467 23.9745 0.392168 24.0615 0.239325 24.2164C0.086482 24.3713 0.000615788 24.5813 0.000615788 24.8003C0.000615788 25.0193 0.086482 25.2294 0.239325 25.3843C0.392168 25.5391 0.599467 25.6261 0.815619 25.6261H14.4384L13.9237 28.1035H0.815619C0.599467 28.1035 0.392168 28.1905 0.239325 28.3454C0.086482 28.5003 0.000615788 28.7103 0.000615788 28.9293C0.000615788 29.1484 0.086482 29.3584 0.239325 29.5133C0.392168 29.6681 0.599467 29.7551 0.815619 29.7551H13.5806L13.0659 32.2325H0.815619C0.599467 32.2325 0.392168 32.3195 0.239325 32.4744C0.086482 32.6293 0.000615788 32.8393 0.000615788 33.0583C0.000615788 33.2774 0.086482 33.4874 0.239325 33.6423C0.392168 33.7971 0.599467 33.8842 0.815619 33.8842H12.7224L12.2077 36.3616H0.815619C0.599467 36.3616 0.392168 36.4486 0.239325 36.6034C0.086482 36.7583 0.000615788 36.9683 0.000615788 37.1874C0.000615788 37.4064 0.086482 37.6164 0.239325 37.7713C0.392168 37.9262 0.599467 38.0132 0.815619 38.0132H11.8646L11.3499 40.4906H0.815619C0.599467 40.4906 0.392168 40.5776 0.239325 40.7324C0.086482 40.8873 0.000615788 41.0974 0.000615788 41.3164C0.000615788 41.5354 0.086482 41.7454 0.239325 41.9003C0.392168 42.0552 0.599467 42.1422 0.815619 42.1422H11.0068L10.4922 44.6196H0.815619C0.599467 44.6196 0.392168 44.7066 0.239325 44.8615C0.086482 45.0163 0.000615788 45.2264 0.000615788 45.4454C0.000615788 45.6644 0.086482 45.8744 0.239325 46.0293C0.392168 46.1842 0.599467 46.2712 0.815619 46.2712H10.1474L9.63273 48.7486H0.815619C0.599467 48.7486 0.392168 48.8356 0.239325 48.9905C0.086482 49.1453 0.000615788 49.3554 0.000615788 49.5744C0.000615788 49.7934 0.086482 50.0035 0.239325 50.1583C0.392168 50.3132 0.599467 50.4002 0.815619 50.4002H9.29165L8.98399 51.8817C8.96074 51.9883 8.95856 52.0984 8.9776 52.2059C8.99663 52.3133 9.0365 52.4158 9.09488 52.5076C9.15327 52.5993 9.22903 52.6784 9.31777 52.7402C9.4065 52.8021 9.50647 52.8456 9.61188 52.868C9.71729 52.8905 9.82605 52.8916 9.93188 52.8712C10.0377 52.8509 10.1385 52.8094 10.2284 52.7494C10.3184 52.6893 10.3956 52.6117 10.4558 52.5212C10.516 52.4307 10.5578 52.3289 10.579 52.2219L16.9621 21.4971H20.2852L17.1202 51.9655C17.1089 52.0734 17.1187 52.1825 17.149 52.2866C17.1794 52.3907 17.2297 52.4877 17.297 52.572C17.3644 52.6564 17.4475 52.7265 17.5416 52.7783C17.6357 52.8301 17.739 52.8626 17.8455 52.8739C17.8745 52.8768 17.9034 52.8784 17.9319 52.8784C18.1332 52.8782 18.3272 52.8026 18.4767 52.666C18.6262 52.5295 18.7206 52.3417 18.7416 52.1389L21.9242 21.4971H25.2657V52.0518C25.2657 52.2708 25.3516 52.4809 25.5044 52.6357C25.6573 52.7906 25.8646 52.8776 26.0807 52.8776C26.2969 52.8776 26.5042 52.7906 26.657 52.6357C26.8099 52.4809 26.8957 52.2708 26.8957 52.0518V21.4971H29.7482V19.8455H8.55815V14.4027ZM7.74315 11.9665C7.63249 11.9666 7.52299 11.9894 7.42134 12.0337C7.31968 12.078 7.22799 12.1428 7.15186 12.2242C6.71391 12.6939 6.14733 13.0202 5.52495 13.1611C4.90257 13.302 4.25282 13.2511 3.65921 13.0149C3.0656 12.7787 2.55526 12.3681 2.19377 11.8358C1.83228 11.3034 1.63616 10.6737 1.63062 10.0276C1.63037 9.3 1.87481 8.59407 2.32365 8.02617C2.77249 7.45826 3.39893 7.06229 4.09968 6.90355C4.20946 6.87794 4.31282 6.82954 4.40322 6.76142C4.49362 6.6933 4.5691 6.60692 4.62489 6.50775C4.68068 6.40858 4.71557 6.29876 4.72737 6.18524C4.73916 6.07171 4.7276 5.95694 4.6934 5.84817C4.59662 5.53733 4.54742 5.21329 4.54752 4.88735C4.55702 4.03487 4.89791 3.22057 5.49621 2.62114C6.09451 2.02172 6.90196 1.68553 7.74335 1.68553C8.58474 1.68553 9.39219 2.02172 9.99049 2.62114C10.5888 3.22057 10.9297 4.03487 10.9392 4.88735C10.9393 5.21329 10.8901 5.53733 10.7933 5.84817C10.7594 5.95681 10.7481 6.07138 10.7601 6.18466C10.772 6.29795 10.807 6.4075 10.8628 6.50643C10.9185 6.60536 10.9939 6.69153 11.0841 6.75952C11.1743 6.8275 11.2775 6.87584 11.387 6.90148C11.8675 7.01827 12.3144 7.24724 12.6921 7.57012C13.0697 7.89301 13.3677 8.30086 13.5621 8.76115C13.7566 9.22143 13.8421 9.7214 13.812 10.2211C13.7819 10.7209 13.6369 11.2066 13.3886 11.6395C13.1403 12.0723 12.7955 12.4404 12.3819 12.7143C11.9683 12.9882 11.4972 13.1603 11.0062 13.217C10.5153 13.2736 10.018 13.2132 9.55421 13.0406C9.0904 12.8679 8.67283 12.5878 8.33484 12.2225C8.25848 12.1415 8.16665 12.077 8.06493 12.0331C7.96321 11.9892 7.85373 11.9667 7.74315 11.967V11.9665Z" fill="#F47321"/>
<path d="M58.6808 19.8455H52.5683H50.9383H29.7482V21.4971H32.6007V52.0517C32.6007 52.2708 32.6865 52.4808 32.8394 52.6357C32.9922 52.7905 33.1995 52.8775 33.4157 52.8775C33.6318 52.8775 33.8391 52.7905 33.992 52.6357C34.1448 52.4808 34.2307 52.2708 34.2307 52.0517V21.4971H37.5722L40.7548 52.1389C40.7758 52.3417 40.8702 52.5294 41.0197 52.666C41.1692 52.8025 41.3632 52.8782 41.5645 52.8784C41.593 52.8784 41.622 52.8767 41.6509 52.8738C41.7574 52.8625 41.8607 52.83 41.9548 52.7782C42.0489 52.7264 42.132 52.6563 42.1994 52.572C42.2667 52.4876 42.317 52.3906 42.3474 52.2865C42.3777 52.1825 42.3875 52.0734 42.3762 51.9654L39.2112 21.4971H42.5343L48.9175 52.2219C48.9386 52.3289 48.9804 52.4306 49.0406 52.5211C49.1008 52.6117 49.1781 52.6892 49.268 52.7493C49.3579 52.8094 49.4587 52.8508 49.5645 52.8712C49.6704 52.8916 49.7791 52.8905 49.8845 52.868C49.9899 52.8455 50.0899 52.8021 50.1786 52.7402C50.2674 52.6783 50.3431 52.5992 50.4015 52.5075C50.4599 52.4158 50.4998 52.3132 50.5188 52.2058C50.5378 52.0984 50.5357 51.9882 50.5124 51.8816L50.2048 50.4001H58.6808C58.8969 50.4001 59.1042 50.3131 59.2571 50.1583C59.4099 50.0034 59.4958 49.7933 59.4958 49.5743C59.4958 49.3553 59.4099 49.1453 59.2571 48.9904C59.1042 48.8355 58.8969 48.7485 58.6808 48.7485H49.8637L49.349 46.2711H58.6808C58.8969 46.2711 59.1042 46.1841 59.2571 46.0293C59.4099 45.8744 59.4958 45.6643 59.4958 45.4453C59.4958 45.2263 59.4099 45.0163 59.2571 44.8614C59.1042 44.7065 58.8969 44.6195 58.6808 44.6195H49.0043L48.4896 42.1421H58.6808C58.8969 42.1421 59.1042 42.0551 59.2571 41.9002C59.4099 41.7454 59.4958 41.5353 59.4958 41.3163C59.4958 41.0973 59.4099 40.8872 59.2571 40.7324C59.1042 40.5775 58.8969 40.4905 58.6808 40.4905H48.1465L47.6318 38.0131H58.6808C58.8969 38.0131 59.1042 37.9261 59.2571 37.7712C59.4099 37.6164 59.4958 37.4063 59.4958 37.1873C59.4958 36.9683 59.4099 36.7582 59.2571 36.6034C59.1042 36.4485 58.8969 36.3615 58.6808 36.3615H47.2887L46.774 33.8841H58.6808C58.8969 33.8841 59.1042 33.7971 59.2571 33.6422C59.4099 33.4874 59.4958 33.2773 59.4958 33.0583C59.4958 32.8393 59.4099 32.6292 59.2571 32.4744C59.1042 32.3195 58.8969 32.2325 58.6808 32.2325H46.4305L45.9158 29.7551H58.6808C58.8969 29.7551 59.1042 29.6681 59.2571 29.5132C59.4099 29.3583 59.4958 29.1483 59.4958 28.9293C59.4958 28.7103 59.4099 28.5002 59.2571 28.3454C59.1042 28.1905 58.8969 28.1035 58.6808 28.1035H45.5727L45.058 25.6261H58.6808C58.8969 25.6261 59.1042 25.5391 59.2571 25.3842C59.4099 25.2293 59.4958 25.0193 59.4958 24.8003C59.4958 24.5813 59.4099 24.3712 59.2571 24.2163C59.1042 24.0615 58.8969 23.9745 58.6808 23.9745H44.7149L44.2002 21.4971H58.6808C58.8969 21.4971 59.1042 21.4101 59.2571 21.2552C59.4099 21.1003 59.4958 20.8903 59.4958 20.6713C59.4958 20.4522 59.4099 20.2422 59.2571 20.0873C59.1042 19.9325 58.8969 19.8455 58.6808 19.8455Z" fill="#F47321"/>
<path d="M24.2017 93.7732H25.2017V92.7732V87.8153L38.7115 98.7921L25.2017 108.924V104.874V103.874H24.2017H2C1.44772 103.874 1 103.426 1 102.874V63.5127C1 62.9604 1.44772 62.5127 2 62.5127H10.1008C10.6531 62.5127 11.1008 62.9604 11.1008 63.5127V90.7732C11.1008 92.4301 12.444 93.7732 14.1008 93.7732H24.2017Z" fill="white" stroke="#F47321" stroke-width="2"/>
<path d="M96.8067 27.2353L95.8067 27.2353L95.8067 28.2353L95.8067 33.1932L82.2969 22.2165L95.8067 12.0841L95.8067 16.1345L95.8067 17.1345L96.8067 17.1345L119.008 17.1345C119.561 17.1345 120.008 17.5822 120.008 18.1345L120.008 57.4958C120.008 58.0481 119.561 58.4958 119.008 58.4958L110.908 58.4959C110.355 58.4959 109.908 58.0481 109.908 57.4959L109.908 30.2353C109.908 28.5785 108.564 27.2353 106.908 27.2353L96.8067 27.2353Z" fill="white" stroke="#214FF4" stroke-width="2"/>
</svg>
