<svg width="121" height="122" viewBox="0 0 121 122" fill="none" xmlns="http://www.w3.org/2000/svg">
<path d="M3.01059 38.7104L3.01059 96.9575C3.01059 103.585 8.38316 108.958 15.0106 108.958H93M16.0564 39.714H115.406V69.8199M90.3177 108.958H115.406L115.406 82.8658" stroke="#F47321" stroke-width="2"/>
<path d="M44.1553 15.6294H15.0106C8.38317 15.6294 3.01059 21.0443 3.01059 27.6718V27.6718C3.01059 34.2992 8.38316 39.7141 15.0106 39.7141H109.385V15.6294H76.0807" stroke="#F47321" stroke-width="2"/>
<path d="M3.01059 28.6753L3.01059 38.7106" stroke="#F47321" stroke-width="2"/>
<path d="M14.0494 45.7354L14.0494 108.958" stroke="#F47321" stroke-width="2"/>
<path d="M116.409 92.9011L18.0635 92.9011" stroke="#F47321" stroke-width="2"/>
<path d="M109.385 22.6541L80.2824 22.6541M13.0459 22.6541L32.1129 22.6541" stroke="#F47321" stroke-width="2"/>
<path d="M116.409 99.9258L18.0635 99.9258" stroke="#F47321" stroke-width="2"/>
<path d="M85.3 115.982H13.0459" stroke="#214FF4" stroke-width="2"/>
<path d="M28.0988 121H-1.90735e-06" stroke="#214FF4" stroke-width="2"/>
<path d="M107.378 121H50.1765" stroke="#214FF4" stroke-width="2"/>
<path d="M119.42 121H111.392" stroke="#214FF4" stroke-width="2"/>
<circle cx="101.858" cy="76.3429" r="2.51235" stroke="#F47321" stroke-width="2"/>
<path d="M94.3283 76.3429C94.3283 72.7384 97.2503 69.8164 100.855 69.8164H119.424V82.8694H100.855C97.2503 82.8694 94.3283 79.9473 94.3283 76.3429Z" stroke="#F47321" stroke-width="2"/>
<path d="M86.0408 39.9072L88.8519 38.2843L67.9031 1.99995L9.15709 35.917L11.1522 39.3726" stroke="#F47321" stroke-width="2"/>
<path d="M83.2777 39.7141L65.8961 9.6083L14.2148 39.4465" stroke="#F47321" stroke-width="2"/>
<path d="M24.0847 39.614L63.889 16.633L77.2149 39.7141" stroke="#F47321" stroke-width="2"/>
<path d="M38.6359 39.7234L53.7688 30.9864V30.9864C56.2882 35.3501 61.8681 36.8452 66.2318 34.3258L67.5487 33.5655L71.104 39.7234" stroke="#F47321" stroke-width="2"/>
<path d="M16.0565 15.6294H15.0106C8.38317 15.6294 3.01059 21.0443 3.01059 27.6718V27.6718C3.01059 34.2992 8.38316 39.7141 15.0106 39.7141H109.385V15.6294H103.865" stroke="#F47321" stroke-width="2"/>
</svg>
