<svg width="14" height="15" viewBox="0 0 14 15" fill="none" xmlns="http://www.w3.org/2000/svg">
<path d="M6.28383 6.92018C7.09241 6.1116 8.38614 6.1116 9.19472 6.92018C10.0033 7.72876 10.0033 9.02249 9.19472 9.83107C8.38614 10.6397 7.09241 10.6397 6.28383 9.83107C5.49835 9.02249 5.49835 7.72876 6.28383 6.92018ZM5.22112 5.85748C3.83498 7.24361 3.83498 9.50764 5.22112 10.8938C6.60726 12.2799 8.87129 12.2799 10.2574 10.8938C11.6436 9.50764 11.6436 7.24361 10.2574 5.85748C8.87129 4.47134 6.60726 4.47134 5.22112 5.85748Z" fill="white"/>
<path d="M4.46877 9.08702L-0.00720215 13.563L1.05461 14.6248L5.53058 10.1488L4.46877 9.08702Z" fill="white"/>
<path d="M12.9282 0.633409L8.45221 5.10938L9.51403 6.17119L13.99 1.69523L12.9282 0.633409Z" fill="white"/>
<path d="M11.7695 3.38154L10.7077 4.44336L12.0472 5.78288L13.109 4.72107L11.7695 3.38154Z" fill="white"/>
<path d="M3.7993 11.3425L2.73749 12.4043L4.07701 13.7438L5.13883 12.682L3.7993 11.3425Z" fill="white"/>
<path d="M5.55361 2.13551L1.51871 6.17041L2.58052 7.23223L6.61543 3.19732L5.55361 2.13551Z" fill="white"/>
</svg>
