<svg width="24" height="15" viewBox="0 0 24 15" fill="none" xmlns="http://www.w3.org/2000/svg">
<path d="M13.162 14.6307C13.771 14.6307 14.02 14.2247 14.013 13.7157C13.982 11.7987 14.727 10.7667 16.072 12.1117C17.56 13.5997 17.868 14.6307 19.675 14.6307H22.875C23.683 14.6307 24.001 14.3707 24.001 13.9627C24.001 13.0997 22.58 11.5767 21.376 10.4587C19.69 8.89372 19.611 8.85672 21.063 6.97272C22.864 4.63372 25.22 1.63672 23.136 1.63672H19.155C18.383 1.63672 18.327 2.07172 18.052 2.71972C17.057 5.06672 15.166 8.10672 14.448 7.64172C13.697 7.15672 14.041 5.23572 14.098 2.38072C14.113 1.62672 14.109 1.10972 12.957 0.841719C12.328 0.696719 11.716 0.636719 11.148 0.636719C8.875 0.636719 7.307 1.58972 8.198 1.75572C9.769 2.04872 9.618 5.44772 9.252 6.91572C8.614 9.47172 6.216 4.89172 5.217 2.61072C4.976 2.06272 4.902 1.63672 4.042 1.63672H0.787C0.295 1.63672 0 1.79672 0 2.15272C0 2.75472 2.96 8.87272 5.786 11.9227C8.542 14.8977 11.266 14.6307 13.162 14.6307Z" fill="white"/>
</svg>
