<svg width="40" height="45" viewBox="0 0 40 45" fill="none" xmlns="http://www.w3.org/2000/svg">
<rect x="13.8462" width="26.1538" height="3.07692" fill="#F47321" fill-opacity="0.8"/>
<rect x="13.8462" y="7.69238" width="26.1538" height="3.07692" fill="#F47321" fill-opacity="0.8"/>
<rect y="15.3845" width="40" height="3.07692" fill="#F47321" fill-opacity="0.8"/>
<rect y="23.0769" width="40" height="3.07692" fill="#F47321" fill-opacity="0.8"/>
<path d="M0 44.9006L1.98895 41.9503L0.0828729 39.0994H1.93094L2.95856 40.732L3.99448 39.0994H5.80111L3.89503 41.9337L5.88398 44.9006H4.03591L2.92541 43.1519L1.80663 44.9006H0Z" fill="#F47321" fill-opacity="0.8"/>
<path d="M6.49245 44.9006V39.0994H8.10018V43.4917H10.9096V44.9006H6.49245Z" fill="#F47321" fill-opacity="0.8"/>
<path d="M13.8782 45C12.7842 45 11.8782 44.6796 11.1599 44.0387L12.055 42.9696C12.6351 43.4337 13.2621 43.6657 13.9362 43.6657C14.3782 43.6657 14.5992 43.5276 14.5992 43.2514C14.5992 43.1298 14.5329 43.0304 14.4003 42.953C14.2677 42.8702 14.008 42.7845 13.6213 42.6961C13.2677 42.6133 12.9749 42.5331 12.7428 42.4558C12.5163 42.3729 12.2925 42.2652 12.0715 42.1326C11.8561 41.9945 11.6959 41.8204 11.5909 41.6105C11.4859 41.4006 11.4334 41.1492 11.4334 40.8564C11.4334 40.3094 11.6351 39.8646 12.0384 39.5221C12.4472 39.174 12.9942 39 13.6793 39C14.6296 39 15.4251 39.2569 16.066 39.7707L15.2621 40.9061C14.7207 40.5249 14.1793 40.3343 13.6378 40.3343C13.45 40.3343 13.3063 40.3702 13.2069 40.442C13.1075 40.5138 13.0577 40.6077 13.0577 40.7238C13.0577 40.8564 13.124 40.9613 13.2566 41.0387C13.3947 41.116 13.6627 41.1989 14.0605 41.2873C14.7898 41.4475 15.3312 41.663 15.6848 41.9337C16.0439 42.1989 16.2235 42.5912 16.2235 43.1105C16.2235 43.6961 16.0108 44.1575 15.5854 44.4945C15.1599 44.8315 14.5909 45 13.8782 45Z" fill="#F47321" fill-opacity="0.8"/>
<rect y="30.7693" width="21.5385" height="3.07692" fill="#F47321" fill-opacity="0.8"/>
<path d="M0 10.7692V7.1413H0.827759C1.17057 6.33509 1.41722 5.48221 1.56773 4.58265C1.71823 3.68309 1.79348 2.50349 1.79348 1.04383V0H8.17726V7.1413H9.23077L8.97993 10.7692H7.36204V8.91071H1.86873L1.74331 10.7692H0ZM6.24582 1.76941H3.64967V2.67321C3.64967 4.35352 3.38629 5.84288 2.85953 7.1413H6.24582V1.76941Z" fill="#F47321" fill-opacity="0.8"/>
</svg>
